<mxfile host="app.diagrams.net" modified="2024-06-12T10:19:15.188Z" agent="Mozilla/5.0 (X11; Ubuntu; Linux x86_64; rv:126.0) Gecko/20100101 Firefox/126.0" etag="IV188lDEW2ybxzEdt1KE" version="24.4.9" type="github">
  <diagram name="Page-1" id="LRGUzIg7N488Ya74ciyX">
    <mxGraphModel dx="1604" dy="795" grid="1" gridSize="10" guides="1" tooltips="1" connect="1" arrows="1" fold="1" page="1" pageScale="1" pageWidth="827" pageHeight="1169" math="0" shadow="0">
      <root>
        <mxCell id="0" />
        <mxCell id="1" parent="0" />
        <mxCell id="GhQbtZrgzOtNst4gtwAx-9" style="edgeStyle=orthogonalEdgeStyle;rounded=0;orthogonalLoop=1;jettySize=auto;html=1;entryX=0;entryY=0.5;entryDx=0;entryDy=0;" edge="1" parent="1" source="GhQbtZrgzOtNst4gtwAx-1" target="GhQbtZrgzOtNst4gtwAx-8">
          <mxGeometry relative="1" as="geometry" />
        </mxCell>
        <mxCell id="GhQbtZrgzOtNst4gtwAx-13" style="edgeStyle=orthogonalEdgeStyle;rounded=0;orthogonalLoop=1;jettySize=auto;html=1;entryX=0;entryY=0.5;entryDx=0;entryDy=0;" edge="1" parent="1" source="GhQbtZrgzOtNst4gtwAx-1" target="GhQbtZrgzOtNst4gtwAx-11">
          <mxGeometry relative="1" as="geometry" />
        </mxCell>
        <mxCell id="GhQbtZrgzOtNst4gtwAx-15" style="edgeStyle=orthogonalEdgeStyle;rounded=0;orthogonalLoop=1;jettySize=auto;html=1;entryX=0;entryY=0.5;entryDx=0;entryDy=0;" edge="1" parent="1" source="GhQbtZrgzOtNst4gtwAx-1" target="GhQbtZrgzOtNst4gtwAx-14">
          <mxGeometry relative="1" as="geometry">
            <Array as="points">
              <mxPoint x="140" y="505" />
            </Array>
          </mxGeometry>
        </mxCell>
        <mxCell id="GhQbtZrgzOtNst4gtwAx-20" style="edgeStyle=orthogonalEdgeStyle;rounded=0;orthogonalLoop=1;jettySize=auto;html=1;entryX=0;entryY=0.5;entryDx=0;entryDy=0;" edge="1" parent="1" source="GhQbtZrgzOtNst4gtwAx-1" target="GhQbtZrgzOtNst4gtwAx-18">
          <mxGeometry relative="1" as="geometry" />
        </mxCell>
        <mxCell id="GhQbtZrgzOtNst4gtwAx-1" value="Client particulier" style="shape=umlActor;verticalLabelPosition=bottom;verticalAlign=top;html=1;" vertex="1" parent="1">
          <mxGeometry x="120" y="40" width="40" height="80" as="geometry" />
        </mxCell>
        <mxCell id="GhQbtZrgzOtNst4gtwAx-10" style="edgeStyle=orthogonalEdgeStyle;rounded=0;orthogonalLoop=1;jettySize=auto;html=1;entryX=1;entryY=0.5;entryDx=0;entryDy=0;" edge="1" parent="1" target="GhQbtZrgzOtNst4gtwAx-8">
          <mxGeometry relative="1" as="geometry">
            <mxPoint x="300" y="120" as="sourcePoint" />
            <mxPoint x="280" y="265" as="targetPoint" />
            <Array as="points">
              <mxPoint x="300" y="265" />
            </Array>
          </mxGeometry>
        </mxCell>
        <mxCell id="GhQbtZrgzOtNst4gtwAx-12" style="edgeStyle=orthogonalEdgeStyle;rounded=0;orthogonalLoop=1;jettySize=auto;html=1;entryX=1;entryY=0.5;entryDx=0;entryDy=0;" edge="1" parent="1" source="GhQbtZrgzOtNst4gtwAx-2" target="GhQbtZrgzOtNst4gtwAx-11">
          <mxGeometry relative="1" as="geometry">
            <Array as="points">
              <mxPoint x="300" y="385" />
            </Array>
          </mxGeometry>
        </mxCell>
        <mxCell id="GhQbtZrgzOtNst4gtwAx-17" style="edgeStyle=orthogonalEdgeStyle;rounded=0;orthogonalLoop=1;jettySize=auto;html=1;entryX=1;entryY=0.5;entryDx=0;entryDy=0;" edge="1" parent="1" source="GhQbtZrgzOtNst4gtwAx-2" target="GhQbtZrgzOtNst4gtwAx-16">
          <mxGeometry relative="1" as="geometry" />
        </mxCell>
        <mxCell id="GhQbtZrgzOtNst4gtwAx-19" style="edgeStyle=orthogonalEdgeStyle;rounded=0;orthogonalLoop=1;jettySize=auto;html=1;entryX=1;entryY=0.5;entryDx=0;entryDy=0;" edge="1" parent="1" source="GhQbtZrgzOtNst4gtwAx-2" target="GhQbtZrgzOtNst4gtwAx-18">
          <mxGeometry relative="1" as="geometry" />
        </mxCell>
        <mxCell id="GhQbtZrgzOtNst4gtwAx-2" value="Client professionnel" style="shape=umlActor;verticalLabelPosition=bottom;verticalAlign=top;html=1;" vertex="1" parent="1">
          <mxGeometry x="280" y="40" width="40" height="80" as="geometry" />
        </mxCell>
        <mxCell id="GhQbtZrgzOtNst4gtwAx-23" style="edgeStyle=orthogonalEdgeStyle;rounded=0;orthogonalLoop=1;jettySize=auto;html=1;entryX=0;entryY=0.5;entryDx=0;entryDy=0;" edge="1" parent="1" source="GhQbtZrgzOtNst4gtwAx-3" target="GhQbtZrgzOtNst4gtwAx-21">
          <mxGeometry relative="1" as="geometry" />
        </mxCell>
        <mxCell id="GhQbtZrgzOtNst4gtwAx-24" style="edgeStyle=orthogonalEdgeStyle;rounded=0;orthogonalLoop=1;jettySize=auto;html=1;entryX=0;entryY=0.5;entryDx=0;entryDy=0;" edge="1" parent="1" source="GhQbtZrgzOtNst4gtwAx-3" target="GhQbtZrgzOtNst4gtwAx-22">
          <mxGeometry relative="1" as="geometry" />
        </mxCell>
        <mxCell id="GhQbtZrgzOtNst4gtwAx-25" style="edgeStyle=orthogonalEdgeStyle;rounded=0;orthogonalLoop=1;jettySize=auto;html=1;entryX=1;entryY=0.5;entryDx=0;entryDy=0;" edge="1" parent="1" source="GhQbtZrgzOtNst4gtwAx-3" target="GhQbtZrgzOtNst4gtwAx-18">
          <mxGeometry relative="1" as="geometry">
            <Array as="points">
              <mxPoint x="460" y="745" />
            </Array>
          </mxGeometry>
        </mxCell>
        <mxCell id="GhQbtZrgzOtNst4gtwAx-28" style="edgeStyle=orthogonalEdgeStyle;rounded=0;orthogonalLoop=1;jettySize=auto;html=1;entryX=1;entryY=0.5;entryDx=0;entryDy=0;" edge="1" parent="1" source="GhQbtZrgzOtNst4gtwAx-3" target="GhQbtZrgzOtNst4gtwAx-16">
          <mxGeometry relative="1" as="geometry">
            <Array as="points">
              <mxPoint x="460" y="625" />
            </Array>
          </mxGeometry>
        </mxCell>
        <mxCell id="GhQbtZrgzOtNst4gtwAx-3" value="Commercial" style="shape=umlActor;verticalLabelPosition=bottom;verticalAlign=top;html=1;" vertex="1" parent="1">
          <mxGeometry x="440" y="40" width="40" height="80" as="geometry" />
        </mxCell>
        <mxCell id="GhQbtZrgzOtNst4gtwAx-31" style="edgeStyle=orthogonalEdgeStyle;rounded=0;orthogonalLoop=1;jettySize=auto;html=1;entryX=1;entryY=0.5;entryDx=0;entryDy=0;" edge="1" parent="1" source="GhQbtZrgzOtNst4gtwAx-4" target="GhQbtZrgzOtNst4gtwAx-30">
          <mxGeometry relative="1" as="geometry" />
        </mxCell>
        <mxCell id="GhQbtZrgzOtNst4gtwAx-33" style="edgeStyle=orthogonalEdgeStyle;rounded=0;orthogonalLoop=1;jettySize=auto;html=1;entryX=1;entryY=0.5;entryDx=0;entryDy=0;" edge="1" parent="1" source="GhQbtZrgzOtNst4gtwAx-4" target="GhQbtZrgzOtNst4gtwAx-32">
          <mxGeometry relative="1" as="geometry" />
        </mxCell>
        <mxCell id="GhQbtZrgzOtNst4gtwAx-4" value="&lt;div&gt;Gestionnaire&amp;nbsp;&lt;/div&gt;&lt;div&gt;catalogue&lt;/div&gt;" style="shape=umlActor;verticalLabelPosition=bottom;verticalAlign=top;html=1;" vertex="1" parent="1">
          <mxGeometry x="600" y="40" width="40" height="80" as="geometry" />
        </mxCell>
        <mxCell id="GhQbtZrgzOtNst4gtwAx-8" value="Consulter le catalogue" style="html=1;whiteSpace=wrap;" vertex="1" parent="1">
          <mxGeometry x="160" y="240" width="120" height="50" as="geometry" />
        </mxCell>
        <mxCell id="GhQbtZrgzOtNst4gtwAx-11" value="Passer une commande" style="html=1;whiteSpace=wrap;" vertex="1" parent="1">
          <mxGeometry x="160" y="360" width="120" height="50" as="geometry" />
        </mxCell>
        <mxCell id="GhQbtZrgzOtNst4gtwAx-14" value="Effectuer un paiement" style="html=1;whiteSpace=wrap;" vertex="1" parent="1">
          <mxGeometry x="160" y="480" width="120" height="50" as="geometry" />
        </mxCell>
        <mxCell id="GhQbtZrgzOtNst4gtwAx-16" value="Négocier une réduction" style="html=1;whiteSpace=wrap;" vertex="1" parent="1">
          <mxGeometry x="160" y="600" width="120" height="50" as="geometry" />
        </mxCell>
        <mxCell id="GhQbtZrgzOtNst4gtwAx-18" value="Gérer les commandes" style="html=1;whiteSpace=wrap;" vertex="1" parent="1">
          <mxGeometry x="160" y="720" width="120" height="50" as="geometry" />
        </mxCell>
        <mxCell id="GhQbtZrgzOtNst4gtwAx-21" value="Gérer les clients" style="html=1;whiteSpace=wrap;" vertex="1" parent="1">
          <mxGeometry x="480" y="240" width="120" height="50" as="geometry" />
        </mxCell>
        <mxCell id="GhQbtZrgzOtNst4gtwAx-22" value="Générer les factures" style="html=1;whiteSpace=wrap;" vertex="1" parent="1">
          <mxGeometry x="480" y="360" width="120" height="50" as="geometry" />
        </mxCell>
        <mxCell id="GhQbtZrgzOtNst4gtwAx-30" value="Mettre à jour le catalogue" style="html=1;whiteSpace=wrap;" vertex="1" parent="1">
          <mxGeometry x="480" y="480" width="120" height="50" as="geometry" />
        </mxCell>
        <mxCell id="GhQbtZrgzOtNst4gtwAx-32" value="Gérer les expeditions" style="html=1;whiteSpace=wrap;" vertex="1" parent="1">
          <mxGeometry x="480" y="600" width="120" height="50" as="geometry" />
        </mxCell>
      </root>
    </mxGraphModel>
  </diagram>
</mxfile>
